<svg width="56" height="20" viewBox="0 0 56 20" fill="none" xmlns="http://www.w3.org/2000/svg">
<path d="M43.6206 6.15558C43.9384 6.15558 44.2431 6.02917 44.4678 5.80417C44.6925 5.57916 44.8187 5.27399 44.8187 4.95578V1.42957C44.7657 1.15785 44.8082 0.87616 44.939 0.632251C45.0698 0.388342 45.2807 0.197225 45.5361 0.0912991C45.7915 -0.0146265 46.0756 -0.0288416 46.3403 0.0510635C46.6049 0.130969 46.8339 0.300077 46.9883 0.529719L55.1779 8.73155C55.3122 8.86602 55.4187 9.02567 55.4914 9.20137C55.5641 9.37708 55.6015 9.5654 55.6015 9.75558C55.6015 9.94576 55.5641 10.1341 55.4914 10.3098C55.4187 10.4855 55.3122 10.6451 55.1779 10.7796L46.9883 18.9802C46.8339 19.2099 46.6049 19.379 46.3403 19.4589C46.0756 19.5388 45.7915 19.5246 45.5361 19.4187C45.2807 19.3127 45.0698 19.1216 44.939 18.8777C44.8082 18.6338 44.7657 18.3521 44.8187 18.0804V14.5542C44.8187 14.236 44.6925 13.9308 44.4678 13.7058C44.2431 13.4808 43.9384 13.3544 43.6206 13.3544L1.19802 12.9044C0.880287 12.9044 0.575566 12.778 0.350893 12.553C0.12622 12.3279 0 12.0228 0 11.7046V6.90537C0 6.58716 0.12622 6.28199 0.350893 6.05698C0.575566 5.83197 0.880287 5.70557 1.19802 5.70557L43.6206 6.15558Z" fill="#AE0008"/>
</svg>
