<svg width="60" height="13" viewBox="0 0 60 13" fill="none" xmlns="http://www.w3.org/2000/svg">
<g clip-path="url(#clip0_1135_2379)">
<mask id="mask0_1135_2379" style="mask-type:luminance" maskUnits="userSpaceOnUse" x="0" y="0" width="60" height="13">
<path d="M59.6057 0H0.000976562V12.6993H59.6057V0Z" fill="white"/>
</mask>
<g mask="url(#mask0_1135_2379)">
<path d="M12.0948 0L9.88295 8.22727L7.1613 0H3.41366L0.000976562 12.6943H3.11408L5.48244 3.87719L8.38785 12.6943H11.7922L15.2048 0H12.0948ZM56.4956 0L53.083 12.6943H56.1931L59.6057 0H56.4956ZM17.0697 0L13.6551 12.6943H16.7648L20.1796 0H17.0697ZM51.8847 7.48266L52.5193 5.12193H47.2206L47.9037 2.57984H53.839L54.5331 0H45.4878L42.1511 12.4102L39.6967 5.87397H38.7307L44.5546 0H40.8837L35.4478 5.38964L36.8969 0H33.7866L30.4313 12.4808L27.9513 5.87397H26.9851L32.809 0H29.1381L23.7021 5.38964L25.1513 0H22.0422L18.6274 12.6943H21.7385L23.5721 5.87397H24.672L26.9106 12.6943H33.4839L35.3177 5.87397H36.4176L38.6562 12.6943H51.208L51.9005 10.1182H45.878L46.5865 7.48266H51.8847Z" fill="#003E70"/>
</g>
</g>
<defs>
<clipPath id="clip0_1135_2379">
<rect width="59.606" height="12.6993" fill="white"/>
</clipPath>
</defs>
</svg>
